<?xml version="1.0" encoding="iso-8859-1"?>
<!-- Generator: Adobe Illustrator 19.0.0, SVG Export Plug-In . SVG Version: 6.00 Build 0)  -->
<svg version="1.1" id="Capa_1" xmlns="http://www.w3.org/2000/svg" xmlns:xlink="http://www.w3.org/1999/xlink" x="0px" y="0px"
	 viewBox="0 0 512 512" style="enable-background:new 0 0 512 512;" xml:space="preserve">
<path style="fill:#FD6D9A;" d="M470.136,157.283L328.717,15.864c-7.81-7.81-20.47-7.81-28.28,0L159.019,157.283
	c-7.82,7.81-7.82,20.47,0,28.28l141.419,141.419c7.81,7.82,20.47,7.82,28.28,0l141.419-141.419
	C477.946,177.752,477.946,165.093,470.136,157.283z"/>
<g>
	<circle style="fill:#57555C;" cx="399.427" cy="171.419" r="19.997"/>
	<circle style="fill:#57555C;" cx="314.578" cy="171.419" r="19.997"/>
</g>
<path style="fill:#EDECFF;" d="M295.998,482c0,11.05-8.95,20-20,20H75.999c-11.05,0-20-8.95-20-20V282.002c0-11.05,8.95-20,20-20
	c5.9,0,196.37,0,199.998,0c11.05,0,20,8.95,20,20C295.998,285.656,295.998,476.167,295.998,482z"/>
<g>
	<path style="fill:#57555C;" d="M235.998,302.001c11.05,0,20,8.95,20,20s-8.95,20-20,20c-11.05,0-20-8.95-20-20
		S224.948,302.001,235.998,302.001z"/>
	<path style="fill:#57555C;" d="M235.998,422.001c11.05,0,20,8.95,20,20s-8.95,20-20,20c-11.05,0-20-8.95-20-20
		S224.948,422.001,235.998,422.001z"/>
	<path style="fill:#57555C;" d="M243.868,157.283c7.81,7.81,7.81,20.47,0,28.28s-20.48,7.81-28.29,0s-7.81-20.47,0-28.28
		S236.058,149.473,243.868,157.283z"/>
	<path style="fill:#57555C;" d="M115.999,302.001c11.05,0,20,8.95,20,20s-8.95,20-20,20s-20-8.95-20-20
		S104.949,302.001,115.999,302.001z"/>
	<path style="fill:#57555C;" d="M115.999,422.001c11.05,0,20,8.95,20,20s-8.95,20-20,20s-20-8.95-20-20
		S104.949,422.001,115.999,422.001z"/>
</g>
<path d="M115.999,292.002c-16.542,0-30,13.458-30,30s13.458,30,30,30s30-13.458,30-30S132.541,292.002,115.999,292.002z
	 M115.999,332.001c-5.514,0-10-4.486-10-10c0-5.514,4.486-10,10-10s10,4.486,10,10C125.999,327.515,121.513,332.001,115.999,332.001
	z"/>
<path d="M115.999,412.001c-16.542,0-30,13.458-30,30s13.458,30,30,30s30-13.458,30-30S132.541,412.001,115.999,412.001z
	 M115.999,452c-5.514,0-10-4.486-10-10s4.486-10,10-10s10,4.486,10,10S121.513,452,115.999,452z"/>
<path d="M235.998,292.002c-16.542,0-30,13.458-30,30s13.458,30,30,30s30-13.458,30-30S252.54,292.002,235.998,292.002z
	 M235.998,332.001c-5.514,0-10-4.486-10-10c0-5.514,4.486-10,10-10s10,4.486,10,10C245.998,327.515,241.512,332.001,235.998,332.001
	z"/>
<path d="M335.788,8.794c-11.721-11.723-30.696-11.727-42.422-0.001L151.952,150.208c-11.73,11.714-11.746,30.7-0.005,42.425
	l59.363,59.37H75.999c-16.542,0-30,13.458-30,30V482c0,16.542,13.458,30,30,30h199.998c16.542,0,30-13.458,30-30V341.602
	c10.251,3.046,21.737,0.514,29.791-7.55l141.418-141.419c11.723-11.721,11.727-30.696,0.001-42.422L335.788,8.794z M285.998,482
	c0,5.514-4.486,10-10,10H75.999c-5.514,0-10-4.486-10-10V282.002c0-5.514,4.486-10,10-10h159.446c0.002,0,0.003,0,0.005,0h40.548
	c5.514,0,10,4.486,10,10V482z M463.064,178.49L321.642,319.915c-3.897,3.902-10.21,3.923-14.141-0.013l-1.504-1.5v-36.401
	c0-16.542-13.458-30-30-30H239.59l-73.505-73.515c-3.907-3.903-3.915-10.219,0.005-14.133L307.51,22.935
	c3.904-3.904,10.228-3.909,14.137,0.001l141.42,141.419C466.97,168.259,466.975,174.583,463.064,178.49z"/>
<path d="M208.508,150.212c-11.722,11.72-11.728,30.696-0.001,42.421c11.725,11.727,30.706,11.726,42.433,0.001
	c11.695-11.696,11.695-30.726,0-42.422C239.214,138.488,220.233,138.485,208.508,150.212z M236.797,178.49
	c-3.908,3.908-10.238,3.91-14.148,0c-3.905-3.905-3.909-10.227,0.001-14.138c3.909-3.909,10.239-3.907,14.147,0.001
	C240.694,168.252,240.694,174.594,236.797,178.49z"/>
<path d="M293.368,150.212c-11.725,11.723-11.728,30.696-0.001,42.421c11.723,11.725,30.696,11.728,42.421,0.001c0,0,0,0,0.001-0.001
	c11.725-11.723,11.725-30.697,0-42.42C324.065,138.488,305.093,138.485,293.368,150.212z M321.646,178.49
	C321.646,178.49,321.646,178.49,321.646,178.49c-3.908,3.908-10.228,3.91-14.139,0c-3.907-3.907-3.909-10.227,0.001-14.138
	c3.907-3.907,10.227-3.909,14.138,0.001C325.554,168.262,325.555,174.583,321.646,178.49z"/>
<path d="M378.216,150.212c-11.695,11.696-11.695,30.726,0,42.421c11.725,11.727,30.696,11.726,42.423,0.001
	c11.695-11.696,11.695-30.726,0-42.422C408.912,138.488,389.942,138.486,378.216,150.212z M406.496,178.49
	c-3.908,3.908-10.229,3.91-14.138,0c-3.897-3.897-3.897-10.239,0-14.138c3.909-3.909,10.229-3.907,14.138,0.001
	C410.393,168.252,410.393,174.594,406.496,178.49z"/>
<path d="M235.998,412.001c-16.542,0-30,13.458-30,30s13.458,30,30,30s30-13.458,30-30S252.54,412.001,235.998,412.001z M235.998,452
	c-5.514,0-10-4.486-10-10s4.486-10,10-10s10,4.486,10,10S241.512,452,235.998,452z"/>
<path d="M435.997,326.001c-5.522,0-10,4.478-10,10c0,49.626-40.374,89.999-89.999,89.999c-5.522,0-10,4.478-10,10
	c0,5.522,4.478,10,10,10c60.654,0,109.999-49.346,109.999-109.999C445.997,330.478,441.519,326.001,435.997,326.001z"/>
<path d="M335.997,406.001c38.598,0,69.999-31.402,69.999-69.999c0-5.522-4.478-10-10-10c-5.522,0-10,4.478-10,10
	c0,27.57-22.43,50-50,50c-5.522,0-10,4.478-10,10C325.997,401.523,330.475,406.001,335.997,406.001z"/>
<path d="M135.999,60.003c5.522,0,10-4.478,10-10s-4.478-10-10-10C75.345,40.004,26,89.349,26,150.003c0,5.522,4.478,10,10,10
	s10-4.478,10-10C46,100.377,86.373,60.003,135.999,60.003z"/>
<path d="M135.999,80.003C97.401,80.003,66,111.405,66,150.003c0,5.522,4.478,10,10,10c5.522,0,10-4.478,10-10
	c0-27.57,22.43-50,50-50c5.522,0,10-4.478,10-10S141.521,80.003,135.999,80.003z"/>
<g>
</g>
<g>
</g>
<g>
</g>
<g>
</g>
<g>
</g>
<g>
</g>
<g>
</g>
<g>
</g>
<g>
</g>
<g>
</g>
<g>
</g>
<g>
</g>
<g>
</g>
<g>
</g>
<g>
</g>
</svg>
